<svg xmlns="http://www.w3.org/2000/svg" viewBox="0 0 64 64">
  <defs>
    <linearGradient id="bg" x1="0" y1="0" x2="1" y2="1">
      <stop offset="0" stop-color="#ff6cae"/>
      <stop offset="1" stop-color="#8b5cf6"/>
    </linearGradient>
  </defs>
  <rect width="64" height="64" fill="url(#bg)"/>
  <g transform="translate(32 32) scale(0.82) translate(-32 -32)">
    <!-- open book -->
    <path d="M32 20c-4-3-10-4-15-3.2-1 .2-1.8 1-1.8 2v22c0 1.2 1.1 2 2.2 1.8 4.6-.7 10.6.3 14.6 3.2 4-2.9 10-3.9 14.6-3.2 1.1.2 2.2-.6 2.2-1.8v-22c0-1-.8-1.8-1.8-2-5-.8-11 .2-15 3.2z" fill="#fff"/>
    <path d="M32 20v25.8" stroke="#f0abcf" stroke-width="2" stroke-linecap="round"/>
    <!-- heart -->
    <path d="M24.5 28.6c1.5-1.6 4-1.6 5.4 0l.6.6.6-.6c1.5-1.6 4-1.6 5.4 0 1.4 1.5 1.4 3.9 0 5.4l-6 6.2-6-6.2c-1.4-1.5-1.4-3.9 0-5.4z" fill="#f74f9e" transform="translate(1.5 -1)"/>
  </g>
</svg>
